<?xml version="1.0" standalone="no"?>
<!DOCTYPE svg PUBLIC "-//W3C//DTD SVG 20010904//EN"
 "http://www.w3.org/TR/2001/REC-SVG-20010904/DTD/svg10.dtd">
<svg version="1.0" xmlns="http://www.w3.org/2000/svg"
 width="183.000000pt" height="183.000000pt" viewBox="0 0 183.000000 183.000000"
 preserveAspectRatio="xMidYMid meet">
<metadata>
Created by potrace 1.14, written by Peter Selinger 2001-2017
</metadata>
<g transform="translate(0.000000,183.000000) scale(0.100000,-0.100000)"
fill="#000000" stroke="none">
<path d="M666 1504 c-339 -76 -609 -419 -633 -807 l-6 -98 39 -40 c56 -59 187
-143 277 -179 161 -64 360 -96 522 -84 l81 7 178 -67 c104 -39 186 -64 197
-61 15 5 19 18 21 87 l3 80 104 46 103 45 94 -26 c119 -34 142 -34 150 -3 3
13 4 106 2 207 -3 180 -4 185 -30 231 -42 70 -90 104 -199 140 l-96 31 -33 66
c-99 202 -265 349 -462 410 -93 28 -225 35 -312 15z m294 -74 c114 -31 243
-119 325 -223 58 -72 101 -145 91 -154 -3 -3 -44 8 -92 26 -109 39 -153 40
-221 1 -60 -34 -104 -93 -135 -178 -18 -50 -21 -86 -26 -299 l-4 -243 -108 0
c-174 0 -341 36 -475 103 -69 34 -169 103 -204 141 -24 26 -25 27 -12 119 15
115 64 261 122 363 52 92 167 217 247 270 138 92 326 120 492 74z m338 -441
l123 -41 -42 -40 c-22 -22 -55 -70 -72 -106 l-32 -67 -3 -232 c-2 -128 -7
-233 -10 -232 -4 0 -68 24 -142 52 l-135 52 0 230 c1 214 3 234 23 287 28 69
97 138 139 138 16 0 83 -18 151 -41z m287 -100 c55 -16 92 -44 115 -89 17 -34
20 -59 20 -185 l0 -145 -27 6 c-16 4 -44 12 -63 19 l-35 12 -5 129 c-4 102 -9
135 -23 156 -20 29 -73 58 -107 58 -28 0 -16 18 24 36 38 16 51 17 101 3z"/>
</g>
</svg>
